<?xml version="1.0" standalone="no"?>
<!DOCTYPE svg PUBLIC "-//W3C//DTD SVG 20010904//EN"
 "http://www.w3.org/TR/2001/REC-SVG-20010904/DTD/svg10.dtd">
<svg version="1.0" xmlns="http://www.w3.org/2000/svg"
 width="1024.000000pt" height="1024.000000pt" viewBox="0 0 1024.000000 1024.000000"
 preserveAspectRatio="xMidYMid meet">
<metadata>
Created by potrace 1.14, written by Peter Selinger 2001-2017
</metadata>
<g transform="translate(0.000000,1024.000000) scale(0.100000,-0.100000)"
fill="#000000" stroke="none">
<path d="M5370 8190 c-62 -17 -220 -72 -291 -101 -89 -37 -357 -175 -462 -238
-390 -233 -791 -542 -1251 -965 -30 -27 -323 -306 -338 -322 -4 -4 -484 -8
-1065 -8 l-1058 -1 -33 -23 c-54 -39 -65 -72 -66 -205 -2 -139 12 -177 79
-211 40 -21 47 -21 867 -21 885 0 834 3 788 -45 -8 -8 -64 -71 -124 -138 -59
-67 -111 -123 -115 -123 -3 -1 -494 -2 -1091 -3 -1212 -2 -1124 3 -1171 -73
-21 -34 -23 -49 -23 -165 -1 -139 5 -156 68 -202 27 -21 36 -21 955 -24 l928
-2 -59 -158 c-33 -86 -66 -163 -73 -171 -11 -11 -85 -14 -406 -13 -410 0 -434
-3 -470 -45 -35 -40 -41 -67 -42 -183 0 -141 15 -183 78 -214 36 -18 67 -20
440 -22 345 -2 486 -7 556 -19 8 -1 42 -6 75 -9 32 -4 68 -9 79 -11 11 -3 45
-7 75 -10 30 -2 66 -7 80 -9 14 -2 52 -8 85 -12 33 -4 67 -8 75 -9 8 -1 44 -5
80 -10 36 -4 72 -9 80 -10 8 -2 42 -6 75 -10 68 -8 114 -13 165 -20 19 -2 53
-7 75 -9 22 -3 59 -8 83 -11 23 -3 59 -7 80 -10 47 -5 96 -12 197 -24 44 -6
103 -13 130 -16 28 -3 61 -8 75 -10 30 -5 66 -10 235 -30 72 -9 141 -17 155
-20 14 -2 48 -6 75 -10 70 -8 108 -13 202 -25 117 -15 130 -17 203 -25 36 -4
72 -8 80 -10 8 -1 44 -6 80 -10 36 -4 72 -9 81 -10 9 -2 40 -6 70 -10 30 -3
65 -8 79 -10 14 -2 50 -6 80 -10 30 -3 71 -8 90 -11 19 -2 53 -7 75 -9 22 -3
56 -7 75 -10 48 -6 117 -15 165 -21 22 -2 56 -7 75 -9 19 -3 53 -7 75 -9 22
-2 56 -7 75 -10 19 -3 58 -8 85 -11 28 -3 64 -8 80 -10 118 -17 244 -32 315
-39 19 -2 73 -9 120 -15 111 -15 145 -20 200 -26 25 -3 81 -10 125 -15 44 -6
98 -13 120 -16 22 -2 51 -7 65 -9 14 -2 50 -7 81 -10 31 -3 65 -7 75 -9 11 -2
46 -7 79 -10 33 -4 71 -9 85 -11 14 -2 46 -6 73 -9 26 -3 68 -9 95 -12 26 -3
58 -7 72 -9 14 -2 51 -7 83 -10 32 -4 67 -8 77 -10 10 -2 46 -6 79 -10 33 -3
68 -7 78 -9 10 -2 47 -7 83 -11 36 -4 73 -9 84 -11 10 -2 44 -6 75 -9 31 -4
83 -11 116 -16 108 -16 103 -18 175 86 36 53 105 153 154 223 49 70 110 157
135 193 25 36 96 136 156 222 301 430 412 589 463 662 31 44 67 96 81 116 14
20 32 45 39 56 7 10 81 115 164 233 83 118 174 249 203 290 28 41 233 333 453
649 221 316 401 575 400 577 -14 12 -363 27 -643 28 -214 0 -599 -11 -680 -18
-22 -3 -89 -7 -150 -11 -60 -3 -126 -8 -145 -10 -19 -2 -73 -7 -120 -10 -47
-3 -101 -8 -120 -10 -19 -2 -64 -7 -100 -10 -36 -3 -81 -8 -100 -10 -19 -3
-56 -7 -83 -9 l-47 -5 -527 335 c-575 366 -523 340 -633 320 -28 -5 -94 -16
-125 -20 -11 -2 -79 -14 -151 -26 l-131 -23 -149 88 c-82 49 -266 158 -409
243 -143 85 -298 177 -345 204 -47 27 -98 58 -115 67 -29 17 -33 17 -95 1z"/>
<path d="M1759 3525 c-3 -2 -22 -6 -44 -9 -76 -10 -100 -17 -172 -51 -183 -86
-262 -256 -215 -465 42 -187 161 -265 506 -330 87 -17 177 -39 201 -49 107
-47 137 -187 57 -264 -96 -92 -347 -83 -439 15 -25 27 -50 81 -58 129 -3 18
-8 35 -10 38 -7 6 -285 4 -292 -3 -14 -13 18 -161 48 -223 90 -189 278 -275
589 -268 315 8 506 162 515 416 5 145 -42 263 -130 329 -97 73 -165 97 -398
145 -237 48 -280 72 -298 168 -7 43 6 94 34 121 72 73 307 81 397 14 31 -23
74 -97 84 -144 l7 -31 62 9 c34 4 80 10 102 13 22 3 57 8 79 11 42 7 40 -2 21
99 -10 54 -64 150 -107 194 -53 53 -160 105 -254 124 -64 12 -276 22 -285 12z"/>
<path d="M2674 3492 l-42 -3 -1 -705 c0 -387 2 -704 7 -705 4 0 67 -1 140 -2
l132 -2 0 320 c0 201 4 335 11 360 26 93 117 156 217 151 76 -4 107 -21 131
-69 19 -38 20 -62 21 -395 0 -196 3 -358 5 -361 3 -2 66 -5 141 -6 l135 -1 -4
405 c-2 224 -6 416 -9 428 -15 52 -51 120 -80 150 -31 32 -100 67 -154 78 -59
12 -175 5 -229 -14 -62 -22 -82 -35 -141 -91 l-42 -40 0 237 c0 131 -1 245 -1
253 -1 12 -19 15 -99 15 -53 0 -116 -1 -138 -3z"/>
<path d="M4960 3148 l0 -127 -47 1 c-27 0 -60 -1 -75 -1 l-28 -1 0 -99 0 -100
58 0 c31 1 65 0 74 0 15 -1 17 -28 20 -283 5 -319 10 -347 76 -410 55 -53 118
-72 232 -72 105 0 204 19 197 38 -3 6 -10 38 -16 71 -7 33 -14 70 -16 81 -4
20 -10 21 -67 17 -74 -6 -110 6 -134 42 -15 22 -17 56 -16 253 0 125 1 235 1
245 1 15 13 17 109 17 l107 0 0 100 c0 82 -2 100 -15 101 -8 0 -57 1 -107 1
-80 0 -93 2 -94 16 0 10 -1 66 -2 127 l-2 110 -127 0 -128 0 0 -127z"/>
<path d="M4089 3036 c-158 -45 -258 -140 -311 -295 -17 -52 -22 -90 -22 -181
-1 -129 5 -171 36 -250 51 -131 168 -228 309 -255 184 -35 366 11 475 120 93
93 137 223 133 393 -5 243 -114 399 -320 462 -69 21 -234 24 -300 6z m224
-205 c85 -28 132 -133 130 -291 -2 -191 -75 -290 -213 -290 -78 0 -142 38
-177 103 -39 76 -47 245 -16 346 37 121 148 174 276 132z"/>
<path d="M5915 3042 c-156 -34 -260 -111 -320 -237 -44 -91 -50 -124 -50 -275
1 -175 34 -271 127 -363 89 -88 220 -130 378 -123 174 8 296 75 375 206 54 89
75 182 70 315 -2 61 -5 117 -8 125 -2 8 -7 29 -12 45 -14 56 -66 142 -113 187
-46 45 -128 95 -169 102 -11 3 -36 9 -56 14 -35 10 -184 13 -222 4z m211 -225
c65 -33 107 -138 107 -266 0 -187 -73 -298 -199 -302 -146 -6 -219 81 -228
268 -6 141 37 263 106 300 64 33 150 34 214 0z"/>
<path d="M7966 3043 c-2 -2 -13 -6 -25 -8 -161 -31 -285 -153 -336 -328 -23
-81 -24 -241 -1 -342 17 -78 65 -163 122 -215 90 -83 210 -116 384 -107 147 8
234 47 305 139 32 41 80 162 71 177 -7 11 -251 7 -251 -4 -1 -6 -8 -24 -18
-41 -44 -83 -212 -99 -296 -28 -36 30 -68 94 -76 152 l-6 42 332 0 332 0 -6
118 c-6 120 -19 178 -57 252 -44 86 -152 165 -255 186 -41 8 -212 14 -219 7z
m179 -205 c58 -22 105 -96 105 -165 l0 -23 -200 0 c-223 0 -214 -4 -188 71 24
69 76 116 141 126 18 3 33 6 35 8 6 5 77 -6 107 -17z"/>
<path d="M9151 3028 c-71 -11 -148 -53 -183 -102 l-28 -39 -1 39 c-1 21 -2 50
-2 64 l-2 25 -122 2 -123 1 -1 -61 c0 -34 -1 -248 -2 -475 l-2 -412 30 0 c17
-1 74 -2 128 -3 59 -1 97 2 98 8 0 6 2 141 3 300 3 323 4 327 72 383 48 39
105 49 224 39 24 -2 25 1 40 112 11 76 12 114 5 116 -26 9 -85 10 -134 3z"/>
<path d="M6559 2973 c64 -164 340 -871 345 -886 5 -16 18 -17 137 -15 l131 3
183 461 c100 254 185 466 189 473 5 8 -32 11 -138 11 l-145 0 -96 -297 c-104
-321 -118 -361 -121 -347 -1 5 -38 122 -83 259 -44 138 -89 280 -101 318 l-22
67 -149 0 -149 0 19 -47z"/>
</g>
</svg>
